<svg width="32" height="32" viewBox="0 0 32 32" fill="none" xmlns="http://www.w3.org/2000/svg">
<g id="mdi:circle-edit-outline">
<path id="Vector" d="M16.0003 2.66666C14.2494 2.66666 12.5156 3.01153 10.8979 3.6816C9.2802 4.35166 7.81035 5.33378 6.57223 6.5719C4.07175 9.07238 2.66699 12.4638 2.66699 16C2.66699 19.5362 4.07175 22.9276 6.57223 25.4281C7.81035 26.6662 9.2802 27.6483 10.8979 28.3184C12.5156 28.9884 14.2494 29.3333 16.0003 29.3333C19.5365 29.3333 22.9279 27.9286 25.4284 25.4281C27.9289 22.9276 29.3337 19.5362 29.3337 16H26.667C26.667 18.829 25.5432 21.5421 23.5428 23.5425C21.5424 25.5428 18.8293 26.6667 16.0003 26.6667C13.1713 26.6667 10.4582 25.5428 8.45785 23.5425C6.45747 21.5421 5.33366 18.829 5.33366 16C5.33366 13.171 6.45747 10.4579 8.45785 8.45752C10.4582 6.45713 13.1713 5.33332 16.0003 5.33332V2.66666ZM25.0403 3.99999C24.8004 4.00201 24.5707 4.09771 24.4003 4.26666L22.7737 5.87999L26.107 9.21332L27.7337 7.59999C28.0803 7.25332 28.0803 6.66666 27.7337 6.33332L25.667 4.26666C25.4937 4.09332 25.267 3.99999 25.0403 3.99999ZM21.827 6.82666L12.0003 16.6667V20H15.3337L25.1603 10.16L21.827 6.82666Z" fill="black"/>
</g>
</svg>
